#!OML:ASF I:\Actors\actors\Patient Classification 2\Patient 1\Session 1\actor1.ASF
:FULLY-SPECIFIED
:DEGREES
556
root -0.445438 18.7365 5.12062 3.83032 -0.135149 -3.69009
lowerback 22.702 -0.360934 6.64312
upperback 1.57232 1.58978 3.25102
thorax -10.9172 0.509881 -0.672499
lowerneck -3.70912 -4.48273 2.56525
upperneck -7.05167 -6.07978 -0.255874
head -1.65822 -3.10425 -0.477666
rclavicle -4.77083e-015 -7.95139e-015
rhumerus 15.8518 5.31559 -28.3945
rradius 139.389
rwrist -64.379
rhand 7.06079 -57.8493
rfingers 7.12502
rthumb 32.3336 -84.9878
lclavicle -4.77083e-015 -7.95139e-015
lhumerus -46.1209 -3.08997 89.2599
lradius 57.3211
lwrist 3.57796
lhand -9.38503 -24.7365
lfingers 7.12502
lthumb 16.5758 4.57558
rfemur 0 0 0
rtibia 0
rfoot 0 0
rtoes 0
lfemur -14.2199 0.285782 -10.6698
ltibia 28.4679
lfoot -19.0287 7.90311
ltoes -56.3572
557
root -0.446327 18.7395 5.13245 3.87227 -0.0223292 -3.62955
lowerback 22.6369 -0.394535 6.70966
upperback 1.48905 1.55714 3.20231
thorax -10.9749 0.487344 -0.753164
lowerneck -3.78058 -4.45402 2.49538
upperneck -7.09899 -6.03957 -0.219518
head -1.65677 -3.08329 -0.456309
rclavicle -8.34896e-015 -1.59028e-015
rhumerus 16.0092 5.13893 -28.2454
rradius 139.301
rwrist -64.2447
rhand 7.08848 -57.575
rfingers 7.12502
rthumb 32.3599 -84.7081
lclavicle -8.34896e-015 -1.59028e-015
lhumerus -46.2366 -3.07723 89.2379
lradius 57.3993
lwrist 3.59029
lhand -9.38943 -24.6907
lfingers 7.12502
lthumb 16.5715 4.62174
rfemur 0 0 0
rtibia 0
rfoot 0 0
rtoes 0
lfemur -14.2034 0.189397 -10.7368
ltibia 28.3754
lfoot -19.002 7.93063
ltoes -56.4413
558
root -0.448158 18.7435 5.14455 3.93205 0.0744793 -3.52903
lowerback 22.5651 -0.39855 6.68311
upperback 1.39621 1.54167 3.17119
thorax -11.0419 0.477471 -0.766721
lowerneck -3.79589 -4.44971 2.51784
upperneck -7.24297 -6.04144 -0.346125
head -1.70586 -3.08384 -0.497687
rclavicle -1.66979e-014 -4.77083e-014
rhumerus 16.1741 4.95568 -28.1174
rradius 139.213
rwrist -64.1138
rhand 7.08395 -57.5833
rfingers 7.12502
rthumb 32.3556 -84.7173
lclavicle -1.66979e-014 -4.77083e-014
lhumerus -46.3222 -3.04687 89.2632
lradius 57.4226
lwrist 3.61196
lhand -9.46514 -24.6767
lfingers 7.12502
lthumb 16.4987 4.64182
rfemur 0 0 0
rtibia 0
rfoot 0 0
rtoes 0
lfemur -14.188 0.0977365 -10.8425
ltibia 28.2665
lfoot -19.0138 7.92256
ltoes -56.4264
559
root -0.449826 18.7464 5.15652 3.96816 0.170987 -3.39824
lowerback 22.5373 -0.380653 6.61695
upperback 1.28828 1.54999 3.1389
thorax -11.1498 0.479244 -0.766621
lowerneck -3.7135 -4.46277 2.52103
upperneck -7.42734 -6.06172 -0.431035
head -1.78295 -3.09364 -0.520075
rclavicle 7.55382e-015 2.38542e-015
rhumerus 16.2387 4.80268 -28.0135
rradius 139.197
rwrist -64.0223
rhand 6.92178 -57.8149
rfingers 7.12502
rthumb 32.2012 -84.9802
lclavicle 7.55382e-015 2.38542e-015
lhumerus -46.3631 -3.04465 89.3238
lradius 57.2124
lwrist 3.84059
lhand -9.62216 -25.2578
lfingers 7.12502
lthumb 16.3475 4.07321
rfemur 0 0 0
rtibia 0
rfoot 0 0
rtoes 0
lfemur -14.1485 0.0337274 -10.985
ltibia 28.1502
lfoot -18.9848 7.90259
ltoes -56.4194
560
root -0.452269 18.748 5.16848 3.97495 0.285146 -3.29322
lowerback 22.4649 -0.374431 6.58849
upperback 1.22569 1.54354 3.09403
thorax -11.1808 0.474727 -0.797662
lowerneck -3.67688 -4.43468 2.61968
upperneck -7.56271 -6.03089 -0.532981
head -1.83975 -3.07974 -0.56575
rclavicle 4.77083e-015 2.54444e-014
rhumerus 16.3097 4.53319 -27.9477
rradius 139.211
rwrist -64.0831
rhand 6.90931 -58.0464
rfingers 7.12502
rthumb 32.1894 -85.2142
lclavicle 4.77083e-015 2.54444e-014
lhumerus -46.3508 -3.06178 89.3446
lradius 56.8878
lwrist 4.19707
lhand -9.82802 -26.4725
lfingers 7.12502
lthumb 16.1493 2.87474
rfemur 0 0 0
rtibia 0
rfoot 0 0
rtoes 0
lfemur -14.0904 -0.0567477 -11.0939
ltibia 28.0418
lfoot -18.9429 7.90097
ltoes -56.4362
561
root -0.45553 18.7492 5.17859 3.97999 0.400281 -3.25236
lowerback 22.3524 -0.378765 6.62165
upperback 1.20199 1.53299 3.05582
thorax -11.1442 0.467815 -0.855111
lowerneck -3.78451 -4.367 2.88774
upperneck -7.60153 -5.96356 -0.802603
head -1.85213 -3.04912 -0.697039
rclavicle -3.97569e-015 -4.05521e-014
rhumerus 16.4467 4.23388 -27.8691
rradius 139.15
rwrist -64.0742
rhand 6.96365 -58.0895
rfingers 7.12502
rthumb 32.2411 -85.2468
lclavicle -3.97569e-015 -4.05521e-014
lhumerus -46.3202 -3.10301 89.3576
lradius 56.7602
lwrist 4.34706
lhand -10.0228 -27.0838
lfingers 7.12502
lthumb 15.9617 2.2785
rfemur 0 0 0
rtibia 0
rfoot 0 0
rtoes 0
lfemur -14.0416 -0.142021 -11.1208
ltibia 27.9473
lfoot -18.9119 7.87077
ltoes -56.393
